<mxfile host="app.diagrams.net" modified="2024-01-19T22:21:12.270Z" agent="Mozilla/5.0 (Macintosh; Intel Mac OS X 10_15_7) AppleWebKit/605.1.15 (KHTML, like Gecko) Version/17.2.1 Safari/605.1.15" etag="DXQeEzHEHS-Haa9TBLh-" version="22.1.21" type="device">
  <diagram name="Page-1" id="irESlFounBhNUCKfbzRT">
    <mxGraphModel dx="1434" dy="830" grid="1" gridSize="10" guides="1" tooltips="1" connect="1" arrows="1" fold="1" page="1" pageScale="1" pageWidth="850" pageHeight="1100" math="0" shadow="0">
      <root>
        <mxCell id="0" />
        <mxCell id="1" parent="0" />
        <mxCell id="3-CPCQTqLftnEwykdo0E-2" value="Task/Responsibility" style="rounded=0;whiteSpace=wrap;html=1;fillColor=#999999;fontColor=#FFFFFF;" vertex="1" parent="1">
          <mxGeometry x="40" y="40" width="120" height="40" as="geometry" />
        </mxCell>
        <mxCell id="3-CPCQTqLftnEwykdo0E-4" value="HR Team Members" style="rounded=0;whiteSpace=wrap;html=1;fillColor=#999999;fontColor=#FFFFFF;" vertex="1" parent="1">
          <mxGeometry x="160" y="40" width="120" height="40" as="geometry" />
        </mxCell>
        <mxCell id="3-CPCQTqLftnEwykdo0E-5" value="Recruiters" style="rounded=0;whiteSpace=wrap;html=1;fillColor=#999999;fontColor=#FFFFFF;" vertex="1" parent="1">
          <mxGeometry x="280" y="40" width="120" height="40" as="geometry" />
        </mxCell>
        <mxCell id="3-CPCQTqLftnEwykdo0E-6" value="Hiring Managers" style="rounded=0;whiteSpace=wrap;html=1;fillColor=#999999;fontColor=#FFFFFF;" vertex="1" parent="1">
          <mxGeometry x="400" y="40" width="120" height="40" as="geometry" />
        </mxCell>
        <mxCell id="3-CPCQTqLftnEwykdo0E-7" value="Facilities Management" style="rounded=0;whiteSpace=wrap;html=1;fillColor=#999999;fontColor=#FFFFFF;" vertex="1" parent="1">
          <mxGeometry x="520" y="40" width="120" height="40" as="geometry" />
        </mxCell>
        <mxCell id="3-CPCQTqLftnEwykdo0E-8" value="IT Specialists" style="rounded=0;whiteSpace=wrap;html=1;fillColor=#999999;fontColor=#FFFFFF;" vertex="1" parent="1">
          <mxGeometry x="640" y="40" width="120" height="40" as="geometry" />
        </mxCell>
        <mxCell id="3-CPCQTqLftnEwykdo0E-9" value="Potential Applicants" style="rounded=0;whiteSpace=wrap;html=1;fillColor=#999999;fontColor=#FFFFFF;" vertex="1" parent="1">
          <mxGeometry x="760" y="40" width="120" height="40" as="geometry" />
        </mxCell>
        <mxCell id="3-CPCQTqLftnEwykdo0E-10" value="Create and Manage Job Listings" style="rounded=0;whiteSpace=wrap;html=1;" vertex="1" parent="1">
          <mxGeometry x="40" y="80" width="120" height="60" as="geometry" />
        </mxCell>
        <mxCell id="3-CPCQTqLftnEwykdo0E-11" value="Review and Manage Incoming Applicants" style="rounded=0;whiteSpace=wrap;html=1;" vertex="1" parent="1">
          <mxGeometry x="40" y="140" width="120" height="60" as="geometry" />
        </mxCell>
        <mxCell id="3-CPCQTqLftnEwykdo0E-12" value="Conduct Initial Assessment of Applicants" style="rounded=0;whiteSpace=wrap;html=1;" vertex="1" parent="1">
          <mxGeometry x="40" y="200" width="120" height="60" as="geometry" />
        </mxCell>
        <mxCell id="3-CPCQTqLftnEwykdo0E-13" value="Recommend Candidates for Approval" style="rounded=0;whiteSpace=wrap;html=1;" vertex="1" parent="1">
          <mxGeometry x="40" y="260" width="120" height="60" as="geometry" />
        </mxCell>
        <mxCell id="3-CPCQTqLftnEwykdo0E-14" value="Participate in Interview Process" style="rounded=0;whiteSpace=wrap;html=1;" vertex="1" parent="1">
          <mxGeometry x="40" y="320" width="120" height="60" as="geometry" />
        </mxCell>
        <mxCell id="3-CPCQTqLftnEwykdo0E-15" value="Provide Input on Candidate Suitability" style="rounded=0;whiteSpace=wrap;html=1;" vertex="1" parent="1">
          <mxGeometry x="40" y="380" width="120" height="60" as="geometry" />
        </mxCell>
        <mxCell id="3-CPCQTqLftnEwykdo0E-16" value="Make Deployment Decisions" style="rounded=0;whiteSpace=wrap;html=1;" vertex="1" parent="1">
          <mxGeometry x="40" y="440" width="120" height="60" as="geometry" />
        </mxCell>
        <mxCell id="3-CPCQTqLftnEwykdo0E-17" value="Send Equipment Orders" style="rounded=0;whiteSpace=wrap;html=1;" vertex="1" parent="1">
          <mxGeometry x="40" y="500" width="120" height="60" as="geometry" />
        </mxCell>
        <mxCell id="3-CPCQTqLftnEwykdo0E-18" value="Apply for Positions" style="rounded=0;whiteSpace=wrap;html=1;" vertex="1" parent="1">
          <mxGeometry x="40" y="560" width="120" height="60" as="geometry" />
        </mxCell>
        <mxCell id="3-CPCQTqLftnEwykdo0E-19" value="Provide Information During Application Process" style="rounded=0;whiteSpace=wrap;html=1;" vertex="1" parent="1">
          <mxGeometry x="40" y="620" width="120" height="60" as="geometry" />
        </mxCell>
        <mxCell id="3-CPCQTqLftnEwykdo0E-20" value="R" style="rounded=0;whiteSpace=wrap;html=1;" vertex="1" parent="1">
          <mxGeometry x="160" y="80" width="120" height="60" as="geometry" />
        </mxCell>
        <mxCell id="3-CPCQTqLftnEwykdo0E-21" value="" style="rounded=0;whiteSpace=wrap;html=1;" vertex="1" parent="1">
          <mxGeometry x="160" y="140" width="120" height="60" as="geometry" />
        </mxCell>
        <mxCell id="3-CPCQTqLftnEwykdo0E-22" value="" style="rounded=0;whiteSpace=wrap;html=1;" vertex="1" parent="1">
          <mxGeometry x="160" y="200" width="120" height="60" as="geometry" />
        </mxCell>
        <mxCell id="3-CPCQTqLftnEwykdo0E-23" value="" style="rounded=0;whiteSpace=wrap;html=1;" vertex="1" parent="1">
          <mxGeometry x="160" y="260" width="120" height="60" as="geometry" />
        </mxCell>
        <mxCell id="3-CPCQTqLftnEwykdo0E-24" value="" style="rounded=0;whiteSpace=wrap;html=1;" vertex="1" parent="1">
          <mxGeometry x="160" y="320" width="120" height="60" as="geometry" />
        </mxCell>
        <mxCell id="3-CPCQTqLftnEwykdo0E-25" value="" style="rounded=0;whiteSpace=wrap;html=1;" vertex="1" parent="1">
          <mxGeometry x="160" y="380" width="120" height="60" as="geometry" />
        </mxCell>
        <mxCell id="3-CPCQTqLftnEwykdo0E-26" value="" style="rounded=0;whiteSpace=wrap;html=1;" vertex="1" parent="1">
          <mxGeometry x="160" y="440" width="120" height="60" as="geometry" />
        </mxCell>
        <mxCell id="3-CPCQTqLftnEwykdo0E-27" value="" style="rounded=0;whiteSpace=wrap;html=1;" vertex="1" parent="1">
          <mxGeometry x="160" y="500" width="120" height="60" as="geometry" />
        </mxCell>
        <mxCell id="3-CPCQTqLftnEwykdo0E-28" value="" style="rounded=0;whiteSpace=wrap;html=1;" vertex="1" parent="1">
          <mxGeometry x="160" y="560" width="120" height="60" as="geometry" />
        </mxCell>
        <mxCell id="3-CPCQTqLftnEwykdo0E-29" value="" style="rounded=0;whiteSpace=wrap;html=1;" vertex="1" parent="1">
          <mxGeometry x="160" y="620" width="120" height="60" as="geometry" />
        </mxCell>
        <mxCell id="3-CPCQTqLftnEwykdo0E-30" value="A" style="rounded=0;whiteSpace=wrap;html=1;" vertex="1" parent="1">
          <mxGeometry x="280" y="80" width="120" height="60" as="geometry" />
        </mxCell>
        <mxCell id="3-CPCQTqLftnEwykdo0E-31" value="R" style="rounded=0;whiteSpace=wrap;html=1;" vertex="1" parent="1">
          <mxGeometry x="280" y="140" width="120" height="60" as="geometry" />
        </mxCell>
        <mxCell id="3-CPCQTqLftnEwykdo0E-32" value="R" style="rounded=0;whiteSpace=wrap;html=1;" vertex="1" parent="1">
          <mxGeometry x="280" y="200" width="120" height="60" as="geometry" />
        </mxCell>
        <mxCell id="3-CPCQTqLftnEwykdo0E-33" value="R" style="rounded=0;whiteSpace=wrap;html=1;" vertex="1" parent="1">
          <mxGeometry x="280" y="260" width="120" height="60" as="geometry" />
        </mxCell>
        <mxCell id="3-CPCQTqLftnEwykdo0E-34" value="" style="rounded=0;whiteSpace=wrap;html=1;" vertex="1" parent="1">
          <mxGeometry x="280" y="320" width="120" height="60" as="geometry" />
        </mxCell>
        <mxCell id="3-CPCQTqLftnEwykdo0E-35" value="" style="rounded=0;whiteSpace=wrap;html=1;" vertex="1" parent="1">
          <mxGeometry x="280" y="380" width="120" height="60" as="geometry" />
        </mxCell>
        <mxCell id="3-CPCQTqLftnEwykdo0E-36" value="" style="rounded=0;whiteSpace=wrap;html=1;" vertex="1" parent="1">
          <mxGeometry x="280" y="440" width="120" height="60" as="geometry" />
        </mxCell>
        <mxCell id="3-CPCQTqLftnEwykdo0E-37" value="" style="rounded=0;whiteSpace=wrap;html=1;" vertex="1" parent="1">
          <mxGeometry x="280" y="500" width="120" height="60" as="geometry" />
        </mxCell>
        <mxCell id="3-CPCQTqLftnEwykdo0E-38" value="" style="rounded=0;whiteSpace=wrap;html=1;" vertex="1" parent="1">
          <mxGeometry x="280" y="560" width="120" height="60" as="geometry" />
        </mxCell>
        <mxCell id="3-CPCQTqLftnEwykdo0E-39" value="" style="rounded=0;whiteSpace=wrap;html=1;" vertex="1" parent="1">
          <mxGeometry x="280" y="620" width="120" height="60" as="geometry" />
        </mxCell>
        <mxCell id="3-CPCQTqLftnEwykdo0E-40" value="" style="rounded=0;whiteSpace=wrap;html=1;" vertex="1" parent="1">
          <mxGeometry x="400" y="80" width="120" height="60" as="geometry" />
        </mxCell>
        <mxCell id="3-CPCQTqLftnEwykdo0E-41" value="" style="rounded=0;whiteSpace=wrap;html=1;" vertex="1" parent="1">
          <mxGeometry x="400" y="140" width="120" height="60" as="geometry" />
        </mxCell>
        <mxCell id="3-CPCQTqLftnEwykdo0E-42" value="C" style="rounded=0;whiteSpace=wrap;html=1;" vertex="1" parent="1">
          <mxGeometry x="400" y="200" width="120" height="60" as="geometry" />
        </mxCell>
        <mxCell id="3-CPCQTqLftnEwykdo0E-43" value="C" style="rounded=0;whiteSpace=wrap;html=1;" vertex="1" parent="1">
          <mxGeometry x="400" y="260" width="120" height="60" as="geometry" />
        </mxCell>
        <mxCell id="3-CPCQTqLftnEwykdo0E-44" value="R" style="rounded=0;whiteSpace=wrap;html=1;" vertex="1" parent="1">
          <mxGeometry x="400" y="320" width="120" height="60" as="geometry" />
        </mxCell>
        <mxCell id="3-CPCQTqLftnEwykdo0E-45" value="R" style="rounded=0;whiteSpace=wrap;html=1;" vertex="1" parent="1">
          <mxGeometry x="400" y="380" width="120" height="60" as="geometry" />
        </mxCell>
        <mxCell id="3-CPCQTqLftnEwykdo0E-46" value="" style="rounded=0;whiteSpace=wrap;html=1;" vertex="1" parent="1">
          <mxGeometry x="400" y="440" width="120" height="60" as="geometry" />
        </mxCell>
        <mxCell id="3-CPCQTqLftnEwykdo0E-47" value="" style="rounded=0;whiteSpace=wrap;html=1;" vertex="1" parent="1">
          <mxGeometry x="400" y="500" width="120" height="60" as="geometry" />
        </mxCell>
        <mxCell id="3-CPCQTqLftnEwykdo0E-48" value="" style="rounded=0;whiteSpace=wrap;html=1;" vertex="1" parent="1">
          <mxGeometry x="400" y="560" width="120" height="60" as="geometry" />
        </mxCell>
        <mxCell id="3-CPCQTqLftnEwykdo0E-49" value="" style="rounded=0;whiteSpace=wrap;html=1;" vertex="1" parent="1">
          <mxGeometry x="400" y="620" width="120" height="60" as="geometry" />
        </mxCell>
        <mxCell id="3-CPCQTqLftnEwykdo0E-50" value="" style="rounded=0;whiteSpace=wrap;html=1;" vertex="1" parent="1">
          <mxGeometry x="520" y="80" width="120" height="60" as="geometry" />
        </mxCell>
        <mxCell id="3-CPCQTqLftnEwykdo0E-51" value="" style="rounded=0;whiteSpace=wrap;html=1;" vertex="1" parent="1">
          <mxGeometry x="520" y="140" width="120" height="60" as="geometry" />
        </mxCell>
        <mxCell id="3-CPCQTqLftnEwykdo0E-52" value="" style="rounded=0;whiteSpace=wrap;html=1;" vertex="1" parent="1">
          <mxGeometry x="520" y="200" width="120" height="60" as="geometry" />
        </mxCell>
        <mxCell id="3-CPCQTqLftnEwykdo0E-53" value="" style="rounded=0;whiteSpace=wrap;html=1;" vertex="1" parent="1">
          <mxGeometry x="520" y="260" width="120" height="60" as="geometry" />
        </mxCell>
        <mxCell id="3-CPCQTqLftnEwykdo0E-54" value="" style="rounded=0;whiteSpace=wrap;html=1;" vertex="1" parent="1">
          <mxGeometry x="520" y="320" width="120" height="60" as="geometry" />
        </mxCell>
        <mxCell id="3-CPCQTqLftnEwykdo0E-55" value="I" style="rounded=0;whiteSpace=wrap;html=1;" vertex="1" parent="1">
          <mxGeometry x="520" y="380" width="120" height="60" as="geometry" />
        </mxCell>
        <mxCell id="3-CPCQTqLftnEwykdo0E-56" value="R" style="rounded=0;whiteSpace=wrap;html=1;" vertex="1" parent="1">
          <mxGeometry x="520" y="440" width="120" height="60" as="geometry" />
        </mxCell>
        <mxCell id="3-CPCQTqLftnEwykdo0E-57" value="" style="rounded=0;whiteSpace=wrap;html=1;" vertex="1" parent="1">
          <mxGeometry x="520" y="500" width="120" height="60" as="geometry" />
        </mxCell>
        <mxCell id="3-CPCQTqLftnEwykdo0E-58" value="" style="rounded=0;whiteSpace=wrap;html=1;" vertex="1" parent="1">
          <mxGeometry x="520" y="560" width="120" height="60" as="geometry" />
        </mxCell>
        <mxCell id="3-CPCQTqLftnEwykdo0E-59" value="" style="rounded=0;whiteSpace=wrap;html=1;" vertex="1" parent="1">
          <mxGeometry x="520" y="620" width="120" height="60" as="geometry" />
        </mxCell>
        <mxCell id="3-CPCQTqLftnEwykdo0E-60" value="" style="rounded=0;whiteSpace=wrap;html=1;" vertex="1" parent="1">
          <mxGeometry x="640" y="80" width="120" height="60" as="geometry" />
        </mxCell>
        <mxCell id="3-CPCQTqLftnEwykdo0E-61" value="" style="rounded=0;whiteSpace=wrap;html=1;" vertex="1" parent="1">
          <mxGeometry x="640" y="140" width="120" height="60" as="geometry" />
        </mxCell>
        <mxCell id="3-CPCQTqLftnEwykdo0E-62" value="" style="rounded=0;whiteSpace=wrap;html=1;" vertex="1" parent="1">
          <mxGeometry x="640" y="200" width="120" height="60" as="geometry" />
        </mxCell>
        <mxCell id="3-CPCQTqLftnEwykdo0E-64" value="" style="rounded=0;whiteSpace=wrap;html=1;" vertex="1" parent="1">
          <mxGeometry x="640" y="320" width="120" height="60" as="geometry" />
        </mxCell>
        <mxCell id="3-CPCQTqLftnEwykdo0E-65" value="" style="rounded=0;whiteSpace=wrap;html=1;" vertex="1" parent="1">
          <mxGeometry x="640" y="380" width="120" height="60" as="geometry" />
        </mxCell>
        <mxCell id="3-CPCQTqLftnEwykdo0E-66" value="I" style="rounded=0;whiteSpace=wrap;html=1;" vertex="1" parent="1">
          <mxGeometry x="640" y="440" width="120" height="60" as="geometry" />
        </mxCell>
        <mxCell id="3-CPCQTqLftnEwykdo0E-67" value="R" style="rounded=0;whiteSpace=wrap;html=1;" vertex="1" parent="1">
          <mxGeometry x="640" y="500" width="120" height="60" as="geometry" />
        </mxCell>
        <mxCell id="3-CPCQTqLftnEwykdo0E-68" value="" style="rounded=0;whiteSpace=wrap;html=1;" vertex="1" parent="1">
          <mxGeometry x="640" y="560" width="120" height="60" as="geometry" />
        </mxCell>
        <mxCell id="3-CPCQTqLftnEwykdo0E-69" value="" style="rounded=0;whiteSpace=wrap;html=1;" vertex="1" parent="1">
          <mxGeometry x="640" y="620" width="120" height="60" as="geometry" />
        </mxCell>
        <mxCell id="3-CPCQTqLftnEwykdo0E-70" value="" style="rounded=0;whiteSpace=wrap;html=1;" vertex="1" parent="1">
          <mxGeometry x="760" y="80" width="120" height="60" as="geometry" />
        </mxCell>
        <mxCell id="3-CPCQTqLftnEwykdo0E-71" value="" style="rounded=0;whiteSpace=wrap;html=1;" vertex="1" parent="1">
          <mxGeometry x="760" y="140" width="120" height="60" as="geometry" />
        </mxCell>
        <mxCell id="3-CPCQTqLftnEwykdo0E-72" value="" style="rounded=0;whiteSpace=wrap;html=1;" vertex="1" parent="1">
          <mxGeometry x="760" y="200" width="120" height="60" as="geometry" />
        </mxCell>
        <mxCell id="3-CPCQTqLftnEwykdo0E-73" value="I" style="rounded=0;whiteSpace=wrap;html=1;" vertex="1" parent="1">
          <mxGeometry x="760" y="260" width="120" height="60" as="geometry" />
        </mxCell>
        <mxCell id="3-CPCQTqLftnEwykdo0E-74" value="" style="rounded=0;whiteSpace=wrap;html=1;" vertex="1" parent="1">
          <mxGeometry x="760" y="320" width="120" height="60" as="geometry" />
        </mxCell>
        <mxCell id="3-CPCQTqLftnEwykdo0E-75" value="I" style="rounded=0;whiteSpace=wrap;html=1;" vertex="1" parent="1">
          <mxGeometry x="760" y="380" width="120" height="60" as="geometry" />
        </mxCell>
        <mxCell id="3-CPCQTqLftnEwykdo0E-76" value="" style="rounded=0;whiteSpace=wrap;html=1;" vertex="1" parent="1">
          <mxGeometry x="760" y="440" width="120" height="60" as="geometry" />
        </mxCell>
        <mxCell id="3-CPCQTqLftnEwykdo0E-77" value="I" style="rounded=0;whiteSpace=wrap;html=1;" vertex="1" parent="1">
          <mxGeometry x="760" y="500" width="120" height="60" as="geometry" />
        </mxCell>
        <mxCell id="3-CPCQTqLftnEwykdo0E-78" value="R" style="rounded=0;whiteSpace=wrap;html=1;" vertex="1" parent="1">
          <mxGeometry x="760" y="560" width="120" height="60" as="geometry" />
        </mxCell>
        <mxCell id="3-CPCQTqLftnEwykdo0E-79" value="R" style="rounded=0;whiteSpace=wrap;html=1;" vertex="1" parent="1">
          <mxGeometry x="760" y="620" width="120" height="60" as="geometry" />
        </mxCell>
        <mxCell id="3-CPCQTqLftnEwykdo0E-82" value="" style="rounded=0;whiteSpace=wrap;html=1;" vertex="1" parent="1">
          <mxGeometry x="640" y="260" width="120" height="60" as="geometry" />
        </mxCell>
      </root>
    </mxGraphModel>
  </diagram>
</mxfile>
